<mxfile host="65bd71144e">
    <diagram id="cVIp-nzU9-chKnxCUfcy" name="第 1 页">
        <mxGraphModel dx="1776" dy="3092" grid="1" gridSize="100" guides="1" tooltips="1" connect="1" arrows="1" fold="1" page="1" pageScale="1" pageWidth="827" pageHeight="583" background="#FFFFFF" math="0" shadow="0">
            <root>
                <mxCell id="0"/>
                <mxCell id="1" parent="0"/>
                <mxCell id="9" value="" style="endArrow=none;dashed=1;html=1;fontSize=24;strokeColor=#050505;fontColor=#CC0000;" parent="1" edge="1">
                    <mxGeometry width="50" height="50" relative="1" as="geometry">
                        <mxPoint x="1080" y="1340" as="sourcePoint"/>
                        <mxPoint x="1080" y="540" as="targetPoint"/>
                    </mxGeometry>
                </mxCell>
                <mxCell id="25" style="edgeStyle=none;html=1;exitX=1;exitY=0.5;exitDx=0;exitDy=0;entryX=0;entryY=0.5;entryDx=0;entryDy=0;fontSize=24;strokeColor=#050505;fontColor=#CC0000;" parent="1" source="14" target="19" edge="1">
                    <mxGeometry relative="1" as="geometry"/>
                </mxCell>
                <mxCell id="14" value="" style="rounded=0;whiteSpace=wrap;html=1;fontSize=24;strokeColor=#050505;fontColor=#CC0000;" parent="1" vertex="1">
                    <mxGeometry x="1440" y="775" width="30" height="370" as="geometry"/>
                </mxCell>
                <mxCell id="16" style="edgeStyle=none;html=1;exitX=1;exitY=0.5;exitDx=0;exitDy=0;entryX=0;entryY=0.5;entryDx=0;entryDy=0;fontSize=24;strokeColor=#050505;fontColor=#CC0000;" parent="1" source="5" target="14" edge="1">
                    <mxGeometry relative="1" as="geometry"/>
                </mxCell>
                <mxCell id="17" value="" style="endArrow=none;dashed=1;html=1;fontSize=24;strokeColor=#050505;fontColor=#CC0000;" parent="1" edge="1">
                    <mxGeometry width="50" height="50" relative="1" as="geometry">
                        <mxPoint x="1460" y="1341.2626509232955" as="sourcePoint"/>
                        <mxPoint x="1450" y="560" as="targetPoint"/>
                    </mxGeometry>
                </mxCell>
                <mxCell id="18" value="IF_0" style="text;html=1;align=center;verticalAlign=middle;resizable=0;points=[];autosize=1;fontSize=24;strokeColor=#050505;fontColor=#CC0000;" parent="1" vertex="1">
                    <mxGeometry x="1230" y="1300" width="70" height="40" as="geometry"/>
                </mxCell>
                <mxCell id="20" value="" style="endArrow=none;dashed=1;html=1;fontSize=24;startArrow=none;strokeColor=#050505;fontColor=#CC0000;" parent="1" source="19" edge="1">
                    <mxGeometry width="50" height="50" relative="1" as="geometry">
                        <mxPoint x="1680" y="1361.2626509232955" as="sourcePoint"/>
                        <mxPoint x="1680" y="550" as="targetPoint"/>
                    </mxGeometry>
                </mxCell>
                <mxCell id="21" value="IF_1" style="text;html=1;align=center;verticalAlign=middle;resizable=0;points=[];autosize=1;fontSize=24;strokeColor=#050505;fontColor=#CC0000;" parent="1" vertex="1">
                    <mxGeometry x="1515" y="1310" width="70" height="40" as="geometry"/>
                </mxCell>
                <mxCell id="24" value="转接桥" style="rounded=1;whiteSpace=wrap;html=1;fontSize=24;strokeColor=#050505;fontColor=#CC0000;" parent="1" vertex="1">
                    <mxGeometry x="1160" y="1200" width="120" height="60" as="geometry"/>
                </mxCell>
                <mxCell id="26" value="" style="endArrow=none;dashed=1;html=1;fontSize=24;strokeColor=#050505;fontColor=#CC0000;" parent="1" target="19" edge="1">
                    <mxGeometry width="50" height="50" relative="1" as="geometry">
                        <mxPoint x="1680" y="1361.2626509232955" as="sourcePoint"/>
                        <mxPoint x="1680" y="550" as="targetPoint"/>
                    </mxGeometry>
                </mxCell>
                <mxCell id="28" style="edgeStyle=none;html=1;exitX=1;exitY=0.5;exitDx=0;exitDy=0;fontSize=24;strokeColor=#050505;fontColor=#CC0000;" parent="1" source="19" edge="1">
                    <mxGeometry relative="1" as="geometry">
                        <mxPoint x="1840" y="920" as="targetPoint"/>
                        <Array as="points">
                            <mxPoint x="1760" y="920"/>
                        </Array>
                    </mxGeometry>
                </mxCell>
                <mxCell id="29" style="edgeStyle=none;html=1;exitX=1;exitY=0.5;exitDx=0;exitDy=0;fontSize=24;strokeColor=#050505;fontColor=#CC0000;" parent="1" source="19" edge="1">
                    <mxGeometry relative="1" as="geometry">
                        <mxPoint x="1840" y="1000" as="targetPoint"/>
                        <Array as="points">
                            <mxPoint x="1760" y="1000"/>
                        </Array>
                    </mxGeometry>
                </mxCell>
                <mxCell id="19" value="" style="whiteSpace=wrap;html=1;fontSize=24;strokeColor=#050505;fontColor=#CC0000;" parent="1" vertex="1">
                    <mxGeometry x="1660" y="755" width="30" height="410" as="geometry"/>
                </mxCell>
                <mxCell id="27" value="FIFO" style="text;html=1;align=center;verticalAlign=middle;resizable=0;points=[];autosize=1;fontSize=24;strokeColor=#050505;fontColor=#CC0000;" parent="1" vertex="1">
                    <mxGeometry x="1870" y="1300" width="80" height="40" as="geometry"/>
                </mxCell>
                <mxCell id="33" style="edgeStyle=none;html=1;exitX=1;exitY=0.5;exitDx=0;exitDy=0;fontSize=24;strokeColor=#050505;fontColor=#CC0000;" parent="1" source="30" edge="1">
                    <mxGeometry relative="1" as="geometry">
                        <mxPoint x="2080" y="880" as="targetPoint"/>
                        <Array as="points">
                            <mxPoint x="2040" y="880"/>
                        </Array>
                    </mxGeometry>
                </mxCell>
                <mxCell id="35" style="edgeStyle=none;html=1;exitX=1;exitY=0.5;exitDx=0;exitDy=0;fontSize=24;entryX=0;entryY=0.5;entryDx=0;entryDy=0;strokeColor=#050505;fontColor=#CC0000;" parent="1" source="30" target="36" edge="1">
                    <mxGeometry relative="1" as="geometry">
                        <mxPoint x="2090" y="960" as="targetPoint"/>
                        <Array as="points">
                            <mxPoint x="2040" y="960"/>
                        </Array>
                    </mxGeometry>
                </mxCell>
                <mxCell id="30" value="fetch_buf" style="rounded=0;whiteSpace=wrap;html=1;fontSize=24;strokeColor=#050505;fontColor=#CC0000;" parent="1" vertex="1">
                    <mxGeometry x="1840" y="890" width="150" height="60" as="geometry"/>
                </mxCell>
                <mxCell id="31" value="pre_decoder" style="rounded=0;whiteSpace=wrap;html=1;fontSize=24;strokeColor=#050505;fontColor=#CC0000;" parent="1" vertex="1">
                    <mxGeometry x="1840" y="970" width="160" height="60" as="geometry"/>
                </mxCell>
                <mxCell id="32" value="" style="endArrow=none;dashed=1;html=1;fontSize=24;strokeColor=#050505;fontColor=#CC0000;" parent="1" edge="1">
                    <mxGeometry width="50" height="50" relative="1" as="geometry">
                        <mxPoint x="2040" y="1381.2626509232955" as="sourcePoint"/>
                        <mxPoint x="2040" y="550" as="targetPoint"/>
                    </mxGeometry>
                </mxCell>
                <mxCell id="40" style="edgeStyle=none;html=1;exitX=1;exitY=0.5;exitDx=0;exitDy=0;entryX=0;entryY=0.25;entryDx=0;entryDy=0;fontSize=24;strokeColor=#050505;fontColor=#CC0000;" parent="1" source="34" target="39" edge="1">
                    <mxGeometry relative="1" as="geometry"/>
                </mxCell>
                <mxCell id="34" value="decoder_0" style="rounded=0;whiteSpace=wrap;html=1;fontSize=24;strokeColor=#050505;fontColor=#CC0000;" parent="1" vertex="1">
                    <mxGeometry x="2080" y="850" width="120" height="60" as="geometry"/>
                </mxCell>
                <mxCell id="41" style="edgeStyle=none;html=1;exitX=1;exitY=0.5;exitDx=0;exitDy=0;entryX=0;entryY=0.75;entryDx=0;entryDy=0;fontSize=24;strokeColor=#050505;fontColor=#CC0000;" parent="1" source="36" target="39" edge="1">
                    <mxGeometry relative="1" as="geometry"/>
                </mxCell>
                <mxCell id="36" value="decoder_1" style="rounded=0;whiteSpace=wrap;html=1;fontSize=24;strokeColor=#050505;fontColor=#CC0000;" parent="1" vertex="1">
                    <mxGeometry x="2080" y="930" width="120" height="60" as="geometry"/>
                </mxCell>
                <mxCell id="37" value="ID" style="text;html=1;align=center;verticalAlign=middle;resizable=0;points=[];autosize=1;fontSize=24;strokeColor=#050505;fontColor=#CC0000;" parent="1" vertex="1">
                    <mxGeometry x="2185" y="1300" width="50" height="40" as="geometry"/>
                </mxCell>
                <mxCell id="38" value="" style="endArrow=none;dashed=1;html=1;fontSize=24;startArrow=none;strokeColor=#050505;fontColor=#CC0000;" parent="1" source="42" edge="1">
                    <mxGeometry width="50" height="50" relative="1" as="geometry">
                        <mxPoint x="2480" y="1381.2626509232955" as="sourcePoint"/>
                        <mxPoint x="2480" y="560" as="targetPoint"/>
                    </mxGeometry>
                </mxCell>
                <mxCell id="45" style="edgeStyle=none;html=1;exitX=1;exitY=0.25;exitDx=0;exitDy=0;entryX=0;entryY=0.5;entryDx=0;entryDy=0;fontSize=24;strokeColor=#050505;fontColor=#CC0000;" parent="1" source="39" target="42" edge="1">
                    <mxGeometry relative="1" as="geometry"/>
                </mxCell>
                <mxCell id="46" style="edgeStyle=none;html=1;exitX=1;exitY=0.75;exitDx=0;exitDy=0;entryX=0;entryY=0.5;entryDx=0;entryDy=0;fontSize=24;strokeColor=#050505;fontColor=#CC0000;" parent="1" source="39" target="44" edge="1">
                    <mxGeometry relative="1" as="geometry"/>
                </mxCell>
                <mxCell id="39" value="dispatcher" style="rounded=0;whiteSpace=wrap;html=1;fontSize=24;strokeColor=#050505;fontColor=#CC0000;" parent="1" vertex="1">
                    <mxGeometry x="2250" y="810" width="110" height="220" as="geometry"/>
                </mxCell>
                <mxCell id="43" value="" style="endArrow=none;dashed=1;html=1;fontSize=24;strokeColor=#050505;fontColor=#CC0000;" parent="1" target="42" edge="1">
                    <mxGeometry width="50" height="50" relative="1" as="geometry">
                        <mxPoint x="2480" y="1381.2626509232955" as="sourcePoint"/>
                        <mxPoint x="2480" y="560" as="targetPoint"/>
                    </mxGeometry>
                </mxCell>
                <mxCell id="42" value="" style="rounded=0;whiteSpace=wrap;html=1;fontSize=24;strokeColor=#050505;fontColor=#CC0000;" parent="1" vertex="1">
                    <mxGeometry x="2450" y="750" width="60" height="140" as="geometry"/>
                </mxCell>
                <mxCell id="44" value="" style="rounded=0;whiteSpace=wrap;html=1;fontSize=24;strokeColor=#050505;fontColor=#CC0000;" parent="1" vertex="1">
                    <mxGeometry x="2450" y="940" width="60" height="140" as="geometry"/>
                </mxCell>
                <mxCell id="53" style="edgeStyle=none;html=1;exitX=1;exitY=0.25;exitDx=0;exitDy=0;entryX=0;entryY=0.75;entryDx=0;entryDy=0;fontSize=24;strokeColor=#050505;fontColor=#CC0000;" parent="1" source="47" target="51" edge="1">
                    <mxGeometry relative="1" as="geometry"/>
                </mxCell>
                <mxCell id="54" style="edgeStyle=none;html=1;exitX=1;exitY=0.75;exitDx=0;exitDy=0;entryX=0;entryY=0.25;entryDx=0;entryDy=0;fontSize=24;strokeColor=#050505;fontColor=#CC0000;" parent="1" source="47" target="52" edge="1">
                    <mxGeometry relative="1" as="geometry"/>
                </mxCell>
                <mxCell id="47" value="REG_FILE" style="rounded=0;whiteSpace=wrap;html=1;fontSize=24;strokeColor=#050505;fontColor=#CC0000;" parent="1" vertex="1">
                    <mxGeometry x="2600" y="755" width="140" height="325" as="geometry"/>
                </mxCell>
                <mxCell id="48" value="" style="shape=flexArrow;endArrow=classic;html=1;fontSize=24;exitX=1;exitY=0.5;exitDx=0;exitDy=0;entryX=-0.015;entryY=0.189;entryDx=0;entryDy=0;entryPerimeter=0;strokeColor=#050505;fontColor=#CC0000;" parent="1" source="42" target="47" edge="1">
                    <mxGeometry width="50" height="50" relative="1" as="geometry">
                        <mxPoint x="2550" y="820" as="sourcePoint"/>
                        <mxPoint x="2600" y="770" as="targetPoint"/>
                    </mxGeometry>
                </mxCell>
                <mxCell id="49" value="" style="shape=flexArrow;endArrow=classic;html=1;fontSize=24;exitX=1;exitY=0.25;exitDx=0;exitDy=0;strokeColor=#050505;fontColor=#CC0000;" parent="1" source="44" edge="1">
                    <mxGeometry width="50" height="50" relative="1" as="geometry">
                        <mxPoint x="2580" y="1020" as="sourcePoint"/>
                        <mxPoint x="2600" y="975" as="targetPoint"/>
                    </mxGeometry>
                </mxCell>
                <mxCell id="50" value="" style="endArrow=none;dashed=1;html=1;dashPattern=1 3;strokeWidth=2;fontSize=24;startArrow=none;strokeColor=#050505;fontColor=#CC0000;" parent="1" source="51" edge="1">
                    <mxGeometry width="50" height="50" relative="1" as="geometry">
                        <mxPoint x="2880" y="1400" as="sourcePoint"/>
                        <mxPoint x="2880" y="560" as="targetPoint"/>
                    </mxGeometry>
                </mxCell>
                <mxCell id="55" value="" style="endArrow=none;dashed=1;html=1;dashPattern=1 3;strokeWidth=2;fontSize=24;strokeColor=#050505;fontColor=#CC0000;" parent="1" target="51" edge="1">
                    <mxGeometry width="50" height="50" relative="1" as="geometry">
                        <mxPoint x="2880" y="1400" as="sourcePoint"/>
                        <mxPoint x="2880" y="560" as="targetPoint"/>
                    </mxGeometry>
                </mxCell>
                <mxCell id="60" style="edgeStyle=none;html=1;exitX=1;exitY=0.5;exitDx=0;exitDy=0;entryX=0;entryY=0.5;entryDx=0;entryDy=0;fontSize=24;strokeColor=#050505;fontColor=#CC0000;" parent="1" source="52" target="57" edge="1">
                    <mxGeometry relative="1" as="geometry"/>
                </mxCell>
                <mxCell id="52" value="" style="rounded=0;whiteSpace=wrap;html=1;fontSize=24;strokeColor=#050505;fontColor=#CC0000;" parent="1" vertex="1">
                    <mxGeometry x="2850" y="960" width="70" height="175" as="geometry"/>
                </mxCell>
                <mxCell id="59" style="edgeStyle=none;html=1;exitX=1;exitY=0.25;exitDx=0;exitDy=0;entryX=0;entryY=0.25;entryDx=0;entryDy=0;fontSize=24;strokeColor=#050505;fontColor=#CC0000;" parent="1" source="51" target="56" edge="1">
                    <mxGeometry relative="1" as="geometry"/>
                </mxCell>
                <mxCell id="79" style="edgeStyle=none;html=1;exitX=1;exitY=0;exitDx=0;exitDy=0;entryX=0;entryY=0.5;entryDx=0;entryDy=0;fontSize=24;strokeColor=#050505;fontColor=#CC0000;" parent="1" source="51" target="78" edge="1">
                    <mxGeometry relative="1" as="geometry">
                        <Array as="points">
                            <mxPoint x="2920" y="565"/>
                        </Array>
                    </mxGeometry>
                </mxCell>
                <mxCell id="51" value="" style="rounded=0;whiteSpace=wrap;html=1;fontSize=24;strokeColor=#050505;fontColor=#CC0000;" parent="1" vertex="1">
                    <mxGeometry x="2850" y="710" width="70" height="175" as="geometry"/>
                </mxCell>
                <mxCell id="64" style="edgeStyle=none;html=1;exitX=1;exitY=0.5;exitDx=0;exitDy=0;entryX=0;entryY=0.5;entryDx=0;entryDy=0;fontSize=24;strokeColor=#050505;fontColor=#CC0000;" parent="1" source="56" target="62" edge="1">
                    <mxGeometry relative="1" as="geometry"/>
                </mxCell>
                <mxCell id="56" value="EU0_0" style="rounded=0;whiteSpace=wrap;html=1;fontSize=24;strokeColor=#050505;fontColor=#CC0000;" parent="1" vertex="1">
                    <mxGeometry x="3000" y="720" width="270" height="140" as="geometry"/>
                </mxCell>
                <mxCell id="65" style="edgeStyle=none;html=1;exitX=1;exitY=0.5;exitDx=0;exitDy=0;entryX=0;entryY=0.5;entryDx=0;entryDy=0;fontSize=24;strokeColor=#050505;fontColor=#CC0000;" parent="1" source="57" target="63" edge="1">
                    <mxGeometry relative="1" as="geometry"/>
                </mxCell>
                <mxCell id="57" value="EU1_0" style="rounded=0;whiteSpace=wrap;html=1;fontSize=24;strokeColor=#050505;fontColor=#CC0000;" parent="1" vertex="1">
                    <mxGeometry x="3000" y="957.5" width="270" height="180" as="geometry"/>
                </mxCell>
                <mxCell id="73" style="edgeStyle=none;html=1;exitX=1;exitY=0.5;exitDx=0;exitDy=0;entryX=0;entryY=0.5;entryDx=0;entryDy=0;fontSize=24;strokeColor=#050505;fontColor=#CC0000;" parent="1" source="62" target="68" edge="1">
                    <mxGeometry relative="1" as="geometry"/>
                </mxCell>
                <mxCell id="62" value="" style="rounded=0;whiteSpace=wrap;html=1;fontSize=24;strokeColor=#050505;fontColor=#CC0000;" parent="1" vertex="1">
                    <mxGeometry x="3340" y="702.5" width="40" height="175" as="geometry"/>
                </mxCell>
                <mxCell id="74" style="edgeStyle=none;html=1;exitX=1;exitY=0.5;exitDx=0;exitDy=0;entryX=0;entryY=0.5;entryDx=0;entryDy=0;fontSize=24;strokeColor=#050505;fontColor=#CC0000;" parent="1" source="63" target="70" edge="1">
                    <mxGeometry relative="1" as="geometry"/>
                </mxCell>
                <mxCell id="63" value="" style="rounded=0;whiteSpace=wrap;html=1;fontSize=24;strokeColor=#050505;fontColor=#CC0000;" parent="1" vertex="1">
                    <mxGeometry x="3340" y="957.5" width="40" height="175" as="geometry"/>
                </mxCell>
                <mxCell id="66" value="" style="endArrow=none;dashed=1;html=1;dashPattern=1 3;strokeWidth=2;fontSize=24;strokeColor=#050505;fontColor=#CC0000;" parent="1" edge="1">
                    <mxGeometry width="50" height="50" relative="1" as="geometry">
                        <mxPoint x="3360" y="1420" as="sourcePoint"/>
                        <mxPoint x="3360" y="560" as="targetPoint"/>
                    </mxGeometry>
                </mxCell>
                <mxCell id="67" style="edgeStyle=none;html=1;exitX=1;exitY=0.5;exitDx=0;exitDy=0;fontSize=24;strokeColor=#050505;fontColor=#CC0000;" parent="1" source="68" edge="1">
                    <mxGeometry relative="1" as="geometry">
                        <mxPoint x="3810" y="790" as="targetPoint"/>
                    </mxGeometry>
                </mxCell>
                <mxCell id="68" value="EU0_1" style="rounded=0;whiteSpace=wrap;html=1;fontSize=24;strokeColor=#050505;fontColor=#CC0000;" parent="1" vertex="1">
                    <mxGeometry x="3440" y="720" width="270" height="140" as="geometry"/>
                </mxCell>
                <mxCell id="69" style="edgeStyle=none;html=1;exitX=1;exitY=0.5;exitDx=0;exitDy=0;entryX=0;entryY=0.5;entryDx=0;entryDy=0;fontSize=24;startArrow=none;strokeColor=#050505;fontColor=#CC0000;" parent="1" source="95" target="72" edge="1">
                    <mxGeometry relative="1" as="geometry"/>
                </mxCell>
                <mxCell id="70" value="EU1_1" style="rounded=0;whiteSpace=wrap;html=1;fontSize=24;strokeColor=#050505;fontColor=#CC0000;" parent="1" vertex="1">
                    <mxGeometry x="3440" y="957.5" width="270" height="180" as="geometry"/>
                </mxCell>
                <mxCell id="89" style="edgeStyle=none;html=1;exitX=1;exitY=0.5;exitDx=0;exitDy=0;entryX=0;entryY=0.206;entryDx=0;entryDy=0;entryPerimeter=0;fontSize=24;strokeColor=#050505;fontColor=#CC0000;" parent="1" source="71" target="88" edge="1">
                    <mxGeometry relative="1" as="geometry"/>
                </mxCell>
                <mxCell id="71" value="" style="rounded=0;whiteSpace=wrap;html=1;fontSize=24;strokeColor=#050505;fontColor=#CC0000;" parent="1" vertex="1">
                    <mxGeometry x="4260" y="712.5" width="40" height="175" as="geometry"/>
                </mxCell>
                <mxCell id="90" style="edgeStyle=none;html=1;exitX=1;exitY=0.5;exitDx=0;exitDy=0;entryX=0.063;entryY=0.805;entryDx=0;entryDy=0;entryPerimeter=0;fontSize=24;strokeColor=#050505;fontColor=#CC0000;" parent="1" source="72" target="88" edge="1">
                    <mxGeometry relative="1" as="geometry"/>
                </mxCell>
                <mxCell id="72" value="" style="rounded=0;whiteSpace=wrap;html=1;fontSize=24;strokeColor=#050505;fontColor=#CC0000;" parent="1" vertex="1">
                    <mxGeometry x="4260" y="970" width="40" height="175" as="geometry"/>
                </mxCell>
                <mxCell id="75" value="REG" style="text;html=1;align=center;verticalAlign=middle;resizable=0;points=[];autosize=1;fontSize=24;strokeColor=#050505;fontColor=#CC0000;" parent="1" vertex="1">
                    <mxGeometry x="2610" y="1310" width="80" height="40" as="geometry"/>
                </mxCell>
                <mxCell id="76" value="EX0" style="text;html=1;align=center;verticalAlign=middle;resizable=0;points=[];autosize=1;fontSize=24;strokeColor=#050505;fontColor=#CC0000;" parent="1" vertex="1">
                    <mxGeometry x="3075" y="1320" width="70" height="40" as="geometry"/>
                </mxCell>
                <mxCell id="77" value="EX1" style="text;html=1;align=center;verticalAlign=middle;resizable=0;points=[];autosize=1;fontSize=24;strokeColor=#050505;fontColor=#CC0000;" parent="1" vertex="1">
                    <mxGeometry x="3515" y="1320" width="70" height="40" as="geometry"/>
                </mxCell>
                <mxCell id="80" style="edgeStyle=none;html=1;exitX=1;exitY=0.5;exitDx=0;exitDy=0;fontSize=24;entryX=0;entryY=0;entryDx=0;entryDy=40;entryPerimeter=0;strokeColor=#050505;fontColor=#CC0000;" parent="1" source="78" target="81" edge="1">
                    <mxGeometry relative="1" as="geometry">
                        <mxPoint x="3780" y="720" as="targetPoint"/>
                        <Array as="points">
                            <mxPoint x="3780" y="565"/>
                            <mxPoint x="3780" y="740"/>
                        </Array>
                    </mxGeometry>
                </mxCell>
                <mxCell id="78" value="DCache" style="rounded=0;whiteSpace=wrap;html=1;fontSize=24;strokeColor=#050505;fontColor=#CC0000;" parent="1" vertex="1">
                    <mxGeometry x="3040" y="520" width="640" height="90" as="geometry"/>
                </mxCell>
                <mxCell id="85" style="edgeStyle=none;html=1;exitX=0;exitY=0;exitDx=30.000000000000004;exitDy=100;exitPerimeter=0;entryX=0;entryY=0.56;entryDx=0;entryDy=0;entryPerimeter=0;fontSize=24;strokeColor=#050505;fontColor=#CC0000;" parent="1" source="81" target="71" edge="1">
                    <mxGeometry relative="1" as="geometry"/>
                </mxCell>
                <mxCell id="81" value="" style="shadow=0;dashed=0;align=center;html=1;strokeWidth=1;shape=mxgraph.rtl.abstract.entity;container=1;collapsible=0;kind=mux;drawPins=0;left=4;right=1;bottom=0;fontSize=24;strokeColor=#050505;fontColor=#CC0000;" parent="1" vertex="1">
                    <mxGeometry x="3810" y="700" width="30" height="190" as="geometry"/>
                </mxCell>
                <mxCell id="86" value="" style="endArrow=none;dashed=1;html=1;dashPattern=1 3;strokeWidth=2;fontSize=24;strokeColor=#050505;fontColor=#CC0000;" parent="1" edge="1">
                    <mxGeometry width="50" height="50" relative="1" as="geometry">
                        <mxPoint x="4285" y="1430" as="sourcePoint"/>
                        <mxPoint x="4275" y="460" as="targetPoint"/>
                    </mxGeometry>
                </mxCell>
                <mxCell id="87" value="WB" style="text;html=1;align=center;verticalAlign=middle;resizable=0;points=[];autosize=1;fontSize=24;strokeColor=#050505;fontColor=#CC0000;" parent="1" vertex="1">
                    <mxGeometry x="4520" y="1380" width="60" height="40" as="geometry"/>
                </mxCell>
                <mxCell id="88" value="Commit&lt;br&gt;Logic" style="rounded=0;whiteSpace=wrap;html=1;fontSize=24;strokeColor=#050505;fontColor=#CC0000;" parent="1" vertex="1">
                    <mxGeometry x="4470" y="710" width="160" height="435" as="geometry"/>
                </mxCell>
                <mxCell id="93" value="流水线设计细则见TOP_CPU.md&lt;br&gt;有疑问请及时交流" style="shape=note;whiteSpace=wrap;html=1;backgroundOutline=1;darkOpacity=0.05;fillStyle=solid;direction=west;gradientDirection=north;shadow=1;size=20;pointerEvents=1;fontSize=24;strokeColor=#050505;fontColor=#CC0000;" parent="1" vertex="1">
                    <mxGeometry x="2650" y="1530" width="570" height="160" as="geometry"/>
                </mxCell>
                <mxCell id="94" value="EU0_2" style="rounded=0;whiteSpace=wrap;html=1;fontSize=24;strokeColor=#050505;fontColor=#CC0000;" parent="1" vertex="1">
                    <mxGeometry x="3990" y="720" width="170" height="140" as="geometry"/>
                </mxCell>
                <mxCell id="96" value="" style="edgeStyle=none;html=1;exitX=1;exitY=0.5;exitDx=0;exitDy=0;entryX=0;entryY=0.5;entryDx=0;entryDy=0;fontSize=24;endArrow=none;strokeColor=#050505;fontColor=#CC0000;" parent="1" source="70" target="95" edge="1">
                    <mxGeometry relative="1" as="geometry">
                        <mxPoint x="3710" y="1047.5" as="sourcePoint"/>
                        <mxPoint x="4260" y="1057.5" as="targetPoint"/>
                    </mxGeometry>
                </mxCell>
                <mxCell id="95" value="EU1_2" style="rounded=0;whiteSpace=wrap;html=1;fontSize=24;strokeColor=#050505;fontColor=#CC0000;" parent="1" vertex="1">
                    <mxGeometry x="4000" y="975" width="160" height="140" as="geometry"/>
                </mxCell>
                <mxCell id="97" value="" style="rounded=0;whiteSpace=wrap;html=1;fontSize=24;strokeColor=#050505;fontColor=#CC0000;" parent="1" vertex="1">
                    <mxGeometry x="3900" y="710" width="40" height="180" as="geometry"/>
                </mxCell>
                <mxCell id="98" value="" style="rounded=0;whiteSpace=wrap;html=1;fontSize=24;strokeColor=#050505;fontColor=#CC0000;" parent="1" vertex="1">
                    <mxGeometry x="3900" y="960" width="40" height="190" as="geometry"/>
                </mxCell>
                <mxCell id="99" value="" style="endArrow=none;dashed=1;html=1;fontSize=24;strokeColor=#050505;fontColor=#CC0000;" parent="1" edge="1">
                    <mxGeometry width="50" height="50" relative="1" as="geometry">
                        <mxPoint x="3920" y="1360" as="sourcePoint"/>
                        <mxPoint x="3920" y="470" as="targetPoint"/>
                    </mxGeometry>
                </mxCell>
                <mxCell id="100" value="EX2" style="text;html=1;align=center;verticalAlign=middle;resizable=0;points=[];autosize=1;fontSize=24;strokeColor=#050505;fontColor=#CC0000;" parent="1" vertex="1">
                    <mxGeometry x="4015" y="1290" width="70" height="40" as="geometry"/>
                </mxCell>
                <mxCell id="3" style="edgeStyle=none;html=1;exitX=0;exitY=0;exitDx=90;exitDy=160;exitPerimeter=0;strokeColor=#050505;fontColor=#CC0000;" parent="1" source="2" edge="1">
                    <mxGeometry relative="1" as="geometry">
                        <mxPoint x="910" y="960" as="targetPoint"/>
                    </mxGeometry>
                </mxCell>
                <mxCell id="2" value="&lt;font style=&quot;font-size: 24px;&quot;&gt;MUX&lt;/font&gt;" style="shadow=0;dashed=0;align=center;html=1;strokeWidth=1;shape=mxgraph.rtl.abstract.entity;container=0;collapsible=0;kind=mux;drawPins=0;left=4;right=1;bottom=0;strokeColor=#050505;fontColor=#CC0000;" parent="1" vertex="1">
                    <mxGeometry x="700" y="800" width="90" height="320" as="geometry"/>
                </mxCell>
                <mxCell id="4" value="&lt;font style=&quot;font-size: 24px;&quot;&gt;PC&lt;/font&gt;" style="whiteSpace=wrap;html=1;container=0;strokeColor=#050505;fontColor=#CC0000;" parent="1" vertex="1">
                    <mxGeometry x="910" y="832" width="120" height="256" as="geometry"/>
                </mxCell>
                <mxCell id="5" value="&lt;font style=&quot;font-size: 24px;&quot;&gt;ICache&lt;/font&gt;" style="whiteSpace=wrap;html=1;container=0;strokeColor=#050505;fontColor=#CC0000;" parent="1" vertex="1">
                    <mxGeometry x="1120" y="897" width="200" height="126" as="geometry"/>
                </mxCell>
                <mxCell id="6" style="edgeStyle=none;html=1;exitX=1;exitY=0.5;exitDx=0;exitDy=0;entryX=0;entryY=0.5;entryDx=0;entryDy=0;strokeColor=#050505;fontColor=#CC0000;" parent="1" source="4" target="5" edge="1">
                    <mxGeometry relative="1" as="geometry"/>
                </mxCell>
                <mxCell id="23" value="" style="shape=flexArrow;endArrow=classic;startArrow=classic;html=1;fontSize=24;entryX=0.5;entryY=1;entryDx=0;entryDy=0;strokeColor=#050505;fontColor=#CC0000;" parent="1" target="5" edge="1">
                    <mxGeometry width="100" height="100" relative="1" as="geometry">
                        <mxPoint x="1220" y="1200" as="sourcePoint"/>
                        <mxPoint x="1240" y="1070" as="targetPoint"/>
                    </mxGeometry>
                </mxCell>
            </root>
        </mxGraphModel>
    </diagram>
</mxfile>